<?xml version="1.0" encoding="UTF-8" standalone="no"?>
<!DOCTYPE svg PUBLIC "-//W3C//DTD SVG 1.1//EN" "http://www.w3.org/Graphics/SVG/1.1/DTD/svg11.dtd">
<svg width="100%" height="100%" viewBox="0 0 1304 804" version="1.1" xmlns="http://www.w3.org/2000/svg" xmlns:xlink="http://www.w3.org/1999/xlink" xml:space="preserve" xmlns:serif="http://www.serif.com/" style="fill-rule:evenodd;clip-rule:evenodd;stroke-linejoin:round;stroke-miterlimit:1.41421;">
    <g transform="matrix(1,0,0,1,-2944.38,237.137)">
        <g transform="matrix(0.747533,0,0,0.755906,2733.51,-39.874)">
            <rect x="285" y="209" width="158" height="125" style="fill:url(#_Linear1);stroke:rgb(201,139,38);stroke-width:5.77px;"/>
        </g>
        <g transform="matrix(1,0,0,1,-21.4798,9.29673)">
            <text x="3005.8px" y="165.628px" style="font-family:'ArialMT', 'Arial', sans-serif;font-size:50px;">T</text>
            <text x="3036.34px" y="182.278px" style="font-family:'ArialMT', 'Arial', sans-serif;font-size:29.15px;">1</text>
        </g>
    </g>
    <g transform="matrix(1,0,0,1,-2708.16,-58.5343)">
        <g transform="matrix(0.747533,0,0,0.755906,2733.51,-39.874)">
            <rect x="285" y="209" width="158" height="125" style="fill:url(#_Linear2);stroke:rgb(201,139,38);stroke-width:5.77px;"/>
        </g>
        <g transform="matrix(1,0,0,1,-21.4798,9.29673)">
            <text x="3005.8px" y="165.628px" style="font-family:'ArialMT', 'Arial', sans-serif;font-size:50px;">T</text>
            <text x="3036.34px" y="182.278px" style="font-family:'ArialMT', 'Arial', sans-serif;font-size:29.15px;">2</text>
        </g>
    </g>
    <g transform="matrix(1,0,0,1,-2708.16,118.915)">
        <g transform="matrix(0.747533,0,0,0.755906,2733.51,-39.874)">
            <rect x="285" y="209" width="158" height="125" style="fill:url(#_Linear3);stroke:rgb(60,94,128);stroke-width:1.39px;"/>
        </g>
        <g transform="matrix(1,0,0,1,-21.4798,9.29673)">
            <text x="3005.8px" y="165.628px" style="font-family:'ArialMT', 'Arial', sans-serif;font-size:50px;">T</text>
            <text x="3036.34px" y="182.278px" style="font-family:'ArialMT', 'Arial', sans-serif;font-size:29.15px;">3</text>
        </g>
    </g>
    <g transform="matrix(1,0,0,1,-2708.16,295.796)">
        <g transform="matrix(0.747533,0,0,0.755906,2733.51,-39.874)">
            <rect x="285" y="209" width="158" height="125" style="fill:url(#_Linear4);stroke:rgb(60,94,128);stroke-width:1.39px;"/>
        </g>
        <g transform="matrix(1,0,0,1,-21.4798,9.29673)">
            <text x="3005.8px" y="165.628px" style="font-family:'ArialMT', 'Arial', sans-serif;font-size:50px;">T</text>
            <text x="3036.34px" y="182.278px" style="font-family:'ArialMT', 'Arial', sans-serif;font-size:29.15px;">4</text>
        </g>
    </g>
    <g transform="matrix(1,0,0,1,-2708.16,532.017)">
        <g transform="matrix(0.747533,0,0,0.755906,2733.51,-39.874)">
            <rect x="285" y="209" width="158" height="125" style="fill:url(#_Linear5);stroke:rgb(60,94,128);stroke-width:1.39px;"/>
        </g>
        <g transform="matrix(1,0,0,1,-21.4798,9.29673)">
            <text x="3005.8px" y="165.628px" style="font-family:'ArialMT', 'Arial', sans-serif;font-size:50px;">T</text>
            <text x="3036.34px" y="182.278px" style="font-family:'ArialMT', 'Arial', sans-serif;font-size:29.15px;">5</text>
        </g>
    </g>
    <g transform="matrix(1,0,0,1,-2471.94,-117.589)">
        <g transform="matrix(0.747533,0,0,0.755906,2733.51,-39.874)">
            <rect x="285" y="209" width="158" height="125" style="fill:url(#_Linear6);stroke:rgb(60,94,128);stroke-width:1.39px;"/>
        </g>
        <g transform="matrix(1,0,0,1,-21.4798,9.29673)">
            <text x="3005.8px" y="165.628px" style="font-family:'ArialMT', 'Arial', sans-serif;font-size:50px;">T</text>
            <text x="3036.34px" y="182.278px" style="font-family:'ArialMT', 'Arial', sans-serif;font-size:29.15px;">6</text>
        </g>
    </g>
    <g transform="matrix(1,0,0,1,-2471.94,0.846096)">
        <g transform="matrix(0.747533,0,0,0.755906,2733.51,-39.874)">
            <rect x="285" y="209" width="158" height="125" style="fill:url(#_Linear7);stroke:rgb(201,139,38);stroke-width:5.77px;"/>
        </g>
        <g transform="matrix(1,0,0,1,-21.4798,9.29673)">
            <text x="3005.8px" y="165.628px" style="font-family:'ArialMT', 'Arial', sans-serif;font-size:50px;">T</text>
            <text x="3036.34px" y="182.278px" style="font-family:'ArialMT', 'Arial', sans-serif;font-size:29.15px;">7</text>
        </g>
    </g>
    <g transform="matrix(1,0,0,1,-2471.94,118.915)">
        <g transform="matrix(0.747533,0,0,0.755906,2733.51,-39.874)">
            <rect x="285" y="209" width="158" height="125" style="fill:url(#_Linear8);stroke:rgb(60,94,128);stroke-width:1.39px;"/>
        </g>
        <g transform="matrix(1,0,0,1,-21.4798,9.29673)">
            <text x="3005.8px" y="165.628px" style="font-family:'ArialMT', 'Arial', sans-serif;font-size:50px;">T</text>
            <text x="3036.34px" y="182.278px" style="font-family:'ArialMT', 'Arial', sans-serif;font-size:29.15px;">8</text>
        </g>
    </g>
    <g transform="matrix(1,0,0,1,-2471.94,236.959)">
        <g transform="matrix(0.747533,0,0,0.755906,2733.51,-39.874)">
            <rect x="285" y="209" width="158" height="125" style="fill:url(#_Linear9);stroke:rgb(60,94,128);stroke-width:1.39px;"/>
        </g>
        <g transform="matrix(1,0,0,1,-21.4798,9.29673)">
            <text x="3005.8px" y="165.628px" style="font-family:'ArialMT', 'Arial', sans-serif;font-size:50px;">T</text>
            <text x="3036.34px" y="182.278px" style="font-family:'ArialMT', 'Arial', sans-serif;font-size:29.15px;">9</text>
        </g>
    </g>
    <g transform="matrix(1,0,0,1,-2471.94,354.568)">
        <g transform="matrix(0.747533,0,0,0.755906,2733.51,-39.874)">
            <rect x="285" y="209" width="158" height="125" style="fill:url(#_Linear10);stroke:rgb(60,94,128);stroke-width:1.39px;"/>
        </g>
        <g transform="matrix(1,0,0,1,-21.4798,9.29673)">
            <text x="3005.8px" y="165.628px" style="font-family:'ArialMT', 'Arial', sans-serif;font-size:50px;">T</text>
            <text x="3036.34px" y="182.278px" style="font-family:'ArialMT', 'Arial', sans-serif;font-size:29.15px;">10</text>
        </g>
    </g>
    <g transform="matrix(1,0,0,1,-2471.94,472.962)">
        <g transform="matrix(0.747533,0,0,0.755906,2733.51,-39.874)">
            <rect x="285" y="209" width="158" height="125" style="fill:url(#_Linear11);stroke:rgb(60,94,128);stroke-width:1.39px;"/>
        </g>
        <g transform="matrix(1,0,0,1,-21.4798,9.29673)">
            <text x="3005.8px" y="165.628px" style="font-family:'ArialMT', 'Arial', sans-serif;font-size:50px;">T</text>
            <text x="3036.34px" y="182.278px" style="font-family:'ArialMT', 'Arial', sans-serif;font-size:29.15px;">1<tspan x="3050.39px " y="182.278px ">1</tspan></text>
        </g>
    </g>
    <g transform="matrix(1,0,0,1,-2471.94,590.87)">
        <g transform="matrix(0.747533,0,0,0.755906,2733.51,-39.874)">
            <rect x="285" y="209" width="158" height="125" style="fill:url(#_Linear12);stroke:rgb(60,94,128);stroke-width:1.39px;"/>
        </g>
        <g transform="matrix(1,0,0,1,-21.4798,9.29673)">
            <text x="3005.8px" y="165.628px" style="font-family:'ArialMT', 'Arial', sans-serif;font-size:50px;">T</text>
            <text x="3036.34px" y="182.278px" style="font-family:'ArialMT', 'Arial', sans-serif;font-size:29.15px;">12</text>
        </g>
    </g>
    <g transform="matrix(1,0,0,1,-2235.72,0.846096)">
        <g transform="matrix(0.747533,0,0,0.755906,2733.51,-39.874)">
            <rect x="285" y="209" width="158" height="125" style="fill:url(#_Linear13);stroke:rgb(201,139,38);stroke-width:5.77px;"/>
        </g>
        <g transform="matrix(1,0,0,1,-21.4798,9.29673)">
            <text x="3005.8px" y="165.628px" style="font-family:'ArialMT', 'Arial', sans-serif;font-size:50px;">T</text>
            <text x="3036.34px" y="182.278px" style="font-family:'ArialMT', 'Arial', sans-serif;font-size:29.15px;">13</text>
        </g>
    </g>
    <g transform="matrix(1,0,0,1,-2236.04,295.796)">
        <g transform="matrix(0.747533,0,0,0.755906,2733.51,-39.874)">
            <rect x="285" y="209" width="158" height="125" style="fill:url(#_Linear14);stroke:rgb(60,94,128);stroke-width:1.39px;"/>
        </g>
        <g transform="matrix(1,0,0,1,-21.4798,9.29673)">
            <text x="3005.8px" y="165.628px" style="font-family:'ArialMT', 'Arial', sans-serif;font-size:50px;">T</text>
            <text x="3036.34px" y="182.278px" style="font-family:'ArialMT', 'Arial', sans-serif;font-size:29.15px;">14</text>
        </g>
    </g>
    <g transform="matrix(1,0,0,1,-2236.04,472.962)">
        <g transform="matrix(0.747533,0,0,0.755906,2733.51,-39.874)">
            <rect x="285" y="209" width="158" height="125" style="fill:url(#_Linear15);stroke:rgb(60,94,128);stroke-width:1.39px;"/>
        </g>
        <g transform="matrix(1,0,0,1,-21.4798,9.29673)">
            <text x="3005.8px" y="165.628px" style="font-family:'ArialMT', 'Arial', sans-serif;font-size:50px;">T</text>
            <text x="3036.34px" y="182.278px" style="font-family:'ArialMT', 'Arial', sans-serif;font-size:29.15px;">15</text>
        </g>
    </g>
    <g transform="matrix(1,0,0,1,-2236.04,590.692)">
        <g transform="matrix(0.747533,0,0,0.755906,2733.51,-39.874)">
            <rect x="285" y="209" width="158" height="125" style="fill:url(#_Linear16);stroke:rgb(60,94,128);stroke-width:1.39px;"/>
        </g>
        <g transform="matrix(1,0,0,1,-21.4798,9.29673)">
            <text x="3005.8px" y="165.628px" style="font-family:'ArialMT', 'Arial', sans-serif;font-size:50px;">T</text>
            <text x="3036.34px" y="182.278px" style="font-family:'ArialMT', 'Arial', sans-serif;font-size:29.15px;">16</text>
        </g>
    </g>
    <g transform="matrix(1,0,0,1,-1999.15,0.846096)">
        <g transform="matrix(0.747533,0,0,0.755906,2733.51,-39.874)">
            <rect x="285" y="209" width="158" height="125" style="fill:url(#_Linear17);stroke:rgb(201,139,38);stroke-width:5.77px;"/>
        </g>
        <g transform="matrix(1,0,0,1,-21.4798,9.29673)">
            <text x="3005.8px" y="165.628px" style="font-family:'ArialMT', 'Arial', sans-serif;font-size:50px;">T</text>
            <text x="3036.34px" y="182.278px" style="font-family:'ArialMT', 'Arial', sans-serif;font-size:29.15px;">17</text>
        </g>
    </g>
    <g transform="matrix(1,0,0,1,-1762.97,236.741)">
        <g transform="matrix(0.747533,0,0,0.755906,2733.51,-39.874)">
            <rect x="285" y="209" width="158" height="125" style="fill:url(#_Linear18);stroke:rgb(201,139,38);stroke-width:5.77px;"/>
        </g>
        <g transform="matrix(1,0,0,1,-21.4798,9.29673)">
            <text x="3005.8px" y="165.628px" style="font-family:'ArialMT', 'Arial', sans-serif;font-size:50px;">T</text>
            <text x="3036.34px" y="182.278px" style="font-family:'ArialMT', 'Arial', sans-serif;font-size:29.15px;">18</text>
        </g>
    </g>
    <g transform="matrix(1,0,0,1,-2884.88,-70.3453)">
        <g transform="matrix(1,-0,-0,1,2884.88,70.3453)">
            <path d="M210.495,108.584L238.391,106.82L223.064,130.194C225.325,121.649 219.04,110.844 210.495,108.584Z"/>
            <path d="M120.28,402.491C172.332,402.898 178.991,168.668 221.102,116.875" style="fill:none;stroke:black;stroke-width:4.17px;stroke-linecap:round;stroke-miterlimit:1.5;"/>
        </g>
    </g>
    <g transform="matrix(1,0,0,1,-2884.88,-70.3453)">
        <g transform="matrix(1,-0,-0,1,2884.88,70.3453)">
            <path d="M211.045,278.486L238.391,284.269L217.356,302.676C221.826,295.051 218.67,282.956 211.045,278.486Z"/>
            <path d="M120.28,402.491C171.596,402.491 178.69,311.896 219.038,289.319" style="fill:none;stroke:black;stroke-width:4.17px;stroke-linecap:round;stroke-miterlimit:1.5;"/>
        </g>
    </g>
    <g transform="matrix(1,0,0,1,-2884.88,-70.3453)">
        <g transform="matrix(1,-0,-0,1,2884.88,70.3453)">
            <path d="M215.224,445.513L238.391,461.151L211.98,470.301C218.988,464.915 220.61,452.521 215.224,445.513Z"/>
            <path d="M120.28,402.491C171.691,402.491 178.477,447.206 218.56,458.556" style="fill:none;stroke:black;stroke-width:4.17px;stroke-linecap:round;stroke-miterlimit:1.5;"/>
        </g>
    </g>
    <g transform="matrix(1,0,0,1,-2648.66,-366.017)">
        <g transform="matrix(1,-0,-0,1,2648.66,366.017)">
            <path d="M451.444,149.841L474.611,165.479L448.201,174.63C455.209,169.244 456.83,156.849 451.444,149.841Z"/>
            <path d="M356.501,106.82C407.911,106.82 414.697,151.534 454.78,162.884" style="fill:none;stroke:black;stroke-width:4.17px;stroke-linecap:round;stroke-miterlimit:1.5;"/>
        </g>
    </g>
    <g transform="matrix(1,0,0,1,-2412.44,-425.072)">
        <g transform="matrix(1,-0,-0,1,2412.44,425.072)">
            <path d="M689.731,147.87L710.832,166.2L683.507,172.082C691.116,167.585 694.228,155.479 689.731,147.87Z"/>
            <path d="M592.721,47.765C644.328,47.765 650.969,138.736 691.461,161.221" style="fill:none;stroke:black;stroke-width:4.17px;stroke-linecap:round;stroke-miterlimit:1.5;"/>
        </g>
    </g>
    <g transform="matrix(1,0,0,1,-2412.44,-70.5232)">
        <g transform="matrix(1,-0,-0,1,2412.44,70.5232)">
            <path d="M687.665,445.335L710.832,460.973L684.421,470.124C691.429,464.737 693.051,452.343 687.665,445.335Z"/>
            <path d="M592.721,402.314C644.132,402.314 650.918,447.028 691.001,458.378" style="fill:none;stroke:black;stroke-width:4.17px;stroke-linecap:round;stroke-miterlimit:1.5;"/>
        </g>
    </g>
    <g transform="matrix(1,0,0,1,-2412.44,-70.5232)">
        <g transform="matrix(1,-0,-0,1,2412.44,70.5232)">
            <path d="M684.415,451.839L710.832,460.973L687.674,476.625C693.056,469.614 691.427,457.22 684.415,451.839Z"/>
            <path d="M592.721,519.922C644.133,519.922 650.918,474.986 691.002,463.58" style="fill:none;stroke:black;stroke-width:4.17px;stroke-linecap:round;stroke-miterlimit:1.5;"/>
        </g>
    </g>
    <g transform="matrix(1,0,0,1,-2176.54,165.78)">
        <g transform="matrix(1,-0,-0,1,2176.54,-165.78)">
            <path d="M1155.76,399.481L1183.59,402.096L1164.8,422.789C1168.37,414.702 1163.85,403.048 1155.76,399.481Z"/>
            <path d="M828.621,756.225C882.503,756.225 1085.69,459.703 1164.94,409.327" style="fill:none;stroke:black;stroke-width:4.17px;stroke-linecap:round;stroke-miterlimit:1.5;"/>
        </g>
    </g>
    <g transform="matrix(1,0,0,1,-2176.54,165.78)">
        <g transform="matrix(1,-0,-0,1,2176.54,-165.78)">
            <path d="M1156.22,396.409L1183.59,402.096L1162.62,420.577C1167.06,412.936 1163.86,400.852 1156.22,396.409Z"/>
            <path d="M828.621,638.316C882.348,638.316 1084.53,441.659 1164.25,407.214" style="fill:none;stroke:black;stroke-width:4.17px;stroke-linecap:round;stroke-miterlimit:1.5;"/>
        </g>
    </g>
    <g transform="matrix(1,0,0,1,-2176.54,165.78)">
        <g transform="matrix(1,-0,-0,1,2176.54,-165.78)">
            <path d="M1157.8,391.308L1183.59,402.096L1159.49,416.251C1165.3,409.594 1164.46,397.123 1157.8,391.308Z"/>
            <path d="M828.621,461.151C882.209,461.151 1083.48,412.24 1163.63,403.443" style="fill:none;stroke:black;stroke-width:4.17px;stroke-linecap:round;stroke-miterlimit:1.5;"/>
        </g>
    </g>
    <g transform="matrix(1,0,0,1,-2176.54,165.78)">
        <g transform="matrix(1,-0,-0,1,2176.54,-165.78)">
            <path d="M1159.88,387.285L1183.59,402.096L1157.52,412.172C1164.33,406.542 1165.51,394.098 1159.88,387.285Z"/>
            <path d="M592.721,284.148C647.186,284.148 1056.02,385.054 1163.68,400.202" style="fill:none;stroke:black;stroke-width:4.17px;stroke-linecap:round;stroke-miterlimit:1.5;"/>
        </g>
    </g>
    <g transform="matrix(1,0,0,1,-2884.88,-70.3453)">
        <path d="M3654.45,578.74L3654.45,661.417" style="fill:none;stroke:rgb(232,0,0);stroke-width:8.33px;stroke-linecap:round;stroke-miterlimit:1.5;"/>
    </g>
    <g transform="matrix(1,0,0,1.55407,-2920.99,-672.822)">
        <path d="M3631.82,570.286L3513.71,661.417" style="fill:none;stroke:rgb(232,0,0);stroke-width:6.38px;stroke-linecap:round;stroke-miterlimit:1.5;"/>
    </g>
    <g transform="matrix(1,0,0,1,-2176.54,165.78)">
        <g transform="matrix(1,-0,-0,1,2176.54,-165.78)">
            <path d="M1166.33,380.107L1183.59,402.096L1155.64,402.707C1163.97,399.729 1169.31,388.429 1166.33,380.107Z"/>
            <path d="M1065.52,166.2C1117.66,166.2 1123.87,351.224 1165.51,393.545" style="fill:none;stroke:black;stroke-width:4.17px;stroke-linecap:round;stroke-miterlimit:1.5;"/>
        </g>
    </g>
    <g transform="matrix(1,0,0,1,-2648.66,-366.017)">
        <g transform="matrix(1,-0,-0,1,2648.66,366.017)">
            <path d="M448.193,38.637L474.611,47.765L451.458,63.423C456.838,56.41 455.205,44.017 448.193,38.637Z"/>
            <path d="M356.501,106.82C407.912,106.82 414.697,61.802 454.782,50.377" style="fill:none;stroke:black;stroke-width:4.17px;stroke-linecap:round;stroke-miterlimit:1.5;"/>
        </g>
    </g>
    <g transform="matrix(1,0,0,1,-2648.66,-11.686)">
        <g transform="matrix(1,-0,-0,1,2648.66,11.686)">
            <path d="M448.193,392.967L474.611,402.096L451.458,417.753C456.838,410.741 455.205,398.348 448.193,392.967Z"/>
            <path d="M356.501,461.151C407.912,461.151 414.697,416.133 454.782,404.707" style="fill:none;stroke:black;stroke-width:4.17px;stroke-linecap:round;stroke-miterlimit:1.5;"/>
        </g>
    </g>
    <g transform="matrix(1,0,0,1,-2648.66,-11.686)">
        <g transform="matrix(1,-0,-0,1,2648.66,11.686)">
            <path d="M451.448,504.278L474.611,519.922L448.198,529.066C455.208,523.682 456.833,511.288 451.448,504.278Z"/>
            <path d="M356.501,461.151C407.912,461.151 414.697,505.951 454.781,517.322" style="fill:none;stroke:black;stroke-width:4.17px;stroke-linecap:round;stroke-miterlimit:1.5;"/>
        </g>
    </g>
    <g transform="matrix(1,0,0,1,-2648.66,224.676)">
        <g transform="matrix(1,-0,-0,1,2648.66,-224.676)">
            <path d="M448.193,629.33L474.611,638.458L451.458,654.116C456.838,647.103 455.205,634.71 448.193,629.33Z"/>
            <path d="M356.501,697.513C407.912,697.513 414.697,652.496 454.782,641.07" style="fill:none;stroke:black;stroke-width:4.17px;stroke-linecap:round;stroke-miterlimit:1.5;"/>
        </g>
    </g>
    <g transform="matrix(1,0,0,1,-2648.66,224.676)">
        <g transform="matrix(1,-0,-0,1,2648.66,-224.676)">
            <path d="M451.448,740.641L474.611,756.284L448.198,765.429C455.208,760.044 456.833,747.65 451.448,740.641Z"/>
            <path d="M356.501,697.513C407.912,697.513 414.697,742.313 454.781,753.685" style="fill:none;stroke:black;stroke-width:4.17px;stroke-linecap:round;stroke-miterlimit:1.5;"/>
        </g>
    </g>
    <g transform="matrix(1,0,0,1,-2648.66,-188.567)">
        <g transform="matrix(1,-0,-0,1,2648.66,188.567)">
            <path d="M449.611,271.769L474.611,284.269L449.611,296.769C455.861,290.519 455.861,278.019 449.611,271.769Z"/>
            <path d="M356.501,284.269L454.611,284.269" style="fill:none;stroke:black;stroke-width:4.17px;stroke-linecap:round;stroke-miterlimit:1.5;"/>
        </g>
    </g>
    <g transform="matrix(1,0,0,1,-2412.44,165.479)">
        <g transform="matrix(1,-0,-0,1,2412.44,-165.479)">
            <path d="M685.832,625.816L710.832,638.316L685.832,650.816C692.082,644.566 692.082,632.066 685.832,625.816Z"/>
            <path d="M592.721,638.316L690.832,638.316" style="fill:none;stroke:black;stroke-width:4.17px;stroke-linecap:round;stroke-miterlimit:1.5;"/>
        </g>
    </g>
    <g transform="matrix(1,0,0,1,-2412.44,-306.636)">
        <g transform="matrix(1,-0,-0,1,2412.44,306.636)">
            <path d="M685.832,153.7L710.832,166.2L685.832,178.7C692.082,172.45 692.082,159.95 685.832,153.7Z"/>
            <path d="M592.721,166.2L690.832,166.2" style="fill:none;stroke:black;stroke-width:4.17px;stroke-linecap:round;stroke-miterlimit:1.5;"/>
        </g>
    </g>
    <g transform="matrix(1,0,0,1,-2176.07,-306.636)">
        <g transform="matrix(1,-0,-0,1,2176.07,306.636)">
            <path d="M922.21,153.7L947.21,166.2L922.21,178.7C928.46,172.45 928.46,159.95 922.21,153.7Z"/>
            <path d="M829.1,166.2L927.21,166.2" style="fill:none;stroke:black;stroke-width:4.17px;stroke-linecap:round;stroke-miterlimit:1.5;"/>
        </g>
    </g>
    <g transform="matrix(1,0,0,1,-2412.44,283.388)">
        <g transform="matrix(1,-0,-0,1,2412.44,-283.388)">
            <path d="M685.832,743.725L710.832,756.225L685.832,768.725C692.082,762.475 692.082,749.975 685.832,743.725Z"/>
            <path d="M592.721,756.225L690.832,756.225" style="fill:none;stroke:black;stroke-width:4.17px;stroke-linecap:round;stroke-miterlimit:1.5;"/>
        </g>
    </g>
    <g transform="matrix(1,0,0,1,-2884.88,-70.3453)">
        <g transform="matrix(1,-0,-0,1,2884.88,70.3453)">
            <path d="M222.705,674.237L238.391,697.371L210.472,696.039C218.98,693.647 225.097,682.746 222.705,674.237Z"/>
            <path d="M120.28,402.491C173.079,402.491 178.5,636.469 220.949,687.585" style="fill:none;stroke:black;stroke-width:4.17px;stroke-linecap:round;stroke-miterlimit:1.5;"/>
        </g>
    </g>
    <defs>
        <linearGradient id="_Linear1" x1="0" y1="0" x2="1" y2="0" gradientUnits="userSpaceOnUse" gradientTransform="matrix(8.90547e-15,115.061,-145.437,7.04546e-15,360.859,212.2)"><stop offset="0" style="stop-color:rgb(229,211,21);stop-opacity:1"/><stop offset="1" style="stop-color:rgb(222,134,2);stop-opacity:1"/></linearGradient>
        <linearGradient id="_Linear2" x1="0" y1="0" x2="1" y2="0" gradientUnits="userSpaceOnUse" gradientTransform="matrix(8.90547e-15,115.061,-145.437,7.04546e-15,360.859,212.2)"><stop offset="0" style="stop-color:rgb(229,211,21);stop-opacity:1"/><stop offset="1" style="stop-color:rgb(222,134,2);stop-opacity:1"/></linearGradient>
        <linearGradient id="_Linear3" x1="0" y1="0" x2="1" y2="0" gradientUnits="userSpaceOnUse" gradientTransform="matrix(8.90547e-15,115.061,-145.437,7.04546e-15,360.859,212.2)"><stop offset="0" style="stop-color:rgb(122,189,255);stop-opacity:1"/><stop offset="1" style="stop-color:rgb(37,89,141);stop-opacity:1"/></linearGradient>
        <linearGradient id="_Linear4" x1="0" y1="0" x2="1" y2="0" gradientUnits="userSpaceOnUse" gradientTransform="matrix(8.90547e-15,115.061,-145.437,7.04546e-15,360.859,212.2)"><stop offset="0" style="stop-color:rgb(122,189,255);stop-opacity:1"/><stop offset="1" style="stop-color:rgb(37,89,141);stop-opacity:1"/></linearGradient>
        <linearGradient id="_Linear5" x1="0" y1="0" x2="1" y2="0" gradientUnits="userSpaceOnUse" gradientTransform="matrix(8.90547e-15,115.061,-145.437,7.04546e-15,360.859,212.2)"><stop offset="0" style="stop-color:rgb(122,189,255);stop-opacity:1"/><stop offset="1" style="stop-color:rgb(37,89,141);stop-opacity:1"/></linearGradient>
        <linearGradient id="_Linear6" x1="0" y1="0" x2="1" y2="0" gradientUnits="userSpaceOnUse" gradientTransform="matrix(8.90547e-15,115.061,-145.437,7.04546e-15,360.859,212.2)"><stop offset="0" style="stop-color:rgb(122,189,255);stop-opacity:1"/><stop offset="1" style="stop-color:rgb(37,89,141);stop-opacity:1"/></linearGradient>
        <linearGradient id="_Linear7" x1="0" y1="0" x2="1" y2="0" gradientUnits="userSpaceOnUse" gradientTransform="matrix(8.90547e-15,115.061,-145.437,7.04546e-15,360.859,212.2)"><stop offset="0" style="stop-color:rgb(229,211,21);stop-opacity:1"/><stop offset="1" style="stop-color:rgb(222,134,2);stop-opacity:1"/></linearGradient>
        <linearGradient id="_Linear8" x1="0" y1="0" x2="1" y2="0" gradientUnits="userSpaceOnUse" gradientTransform="matrix(8.90547e-15,115.061,-145.437,7.04546e-15,360.859,212.2)"><stop offset="0" style="stop-color:rgb(122,189,255);stop-opacity:1"/><stop offset="1" style="stop-color:rgb(37,89,141);stop-opacity:1"/></linearGradient>
        <linearGradient id="_Linear9" x1="0" y1="0" x2="1" y2="0" gradientUnits="userSpaceOnUse" gradientTransform="matrix(8.90547e-15,115.061,-145.437,7.04546e-15,360.859,212.2)"><stop offset="0" style="stop-color:rgb(122,189,255);stop-opacity:1"/><stop offset="1" style="stop-color:rgb(37,89,141);stop-opacity:1"/></linearGradient>
        <linearGradient id="_Linear10" x1="0" y1="0" x2="1" y2="0" gradientUnits="userSpaceOnUse" gradientTransform="matrix(8.90547e-15,115.061,-145.437,7.04546e-15,360.859,212.2)"><stop offset="0" style="stop-color:rgb(122,189,255);stop-opacity:1"/><stop offset="1" style="stop-color:rgb(37,89,141);stop-opacity:1"/></linearGradient>
        <linearGradient id="_Linear11" x1="0" y1="0" x2="1" y2="0" gradientUnits="userSpaceOnUse" gradientTransform="matrix(8.90547e-15,115.061,-145.437,7.04546e-15,360.859,212.2)"><stop offset="0" style="stop-color:rgb(122,189,255);stop-opacity:1"/><stop offset="1" style="stop-color:rgb(37,89,141);stop-opacity:1"/></linearGradient>
        <linearGradient id="_Linear12" x1="0" y1="0" x2="1" y2="0" gradientUnits="userSpaceOnUse" gradientTransform="matrix(8.90547e-15,115.061,-145.437,7.04546e-15,360.859,212.2)"><stop offset="0" style="stop-color:rgb(122,189,255);stop-opacity:1"/><stop offset="1" style="stop-color:rgb(37,89,141);stop-opacity:1"/></linearGradient>
        <linearGradient id="_Linear13" x1="0" y1="0" x2="1" y2="0" gradientUnits="userSpaceOnUse" gradientTransform="matrix(8.90547e-15,115.061,-145.437,7.04546e-15,360.859,212.2)"><stop offset="0" style="stop-color:rgb(229,211,21);stop-opacity:1"/><stop offset="1" style="stop-color:rgb(222,134,2);stop-opacity:1"/></linearGradient>
        <linearGradient id="_Linear14" x1="0" y1="0" x2="1" y2="0" gradientUnits="userSpaceOnUse" gradientTransform="matrix(8.90547e-15,115.061,-145.437,7.04546e-15,360.859,212.2)"><stop offset="0" style="stop-color:rgb(122,189,255);stop-opacity:1"/><stop offset="1" style="stop-color:rgb(37,89,141);stop-opacity:1"/></linearGradient>
        <linearGradient id="_Linear15" x1="0" y1="0" x2="1" y2="0" gradientUnits="userSpaceOnUse" gradientTransform="matrix(8.90547e-15,115.061,-145.437,7.04546e-15,360.859,212.2)"><stop offset="0" style="stop-color:rgb(122,189,255);stop-opacity:1"/><stop offset="1" style="stop-color:rgb(37,89,141);stop-opacity:1"/></linearGradient>
        <linearGradient id="_Linear16" x1="0" y1="0" x2="1" y2="0" gradientUnits="userSpaceOnUse" gradientTransform="matrix(8.90547e-15,115.061,-145.437,7.04546e-15,360.859,212.2)"><stop offset="0" style="stop-color:rgb(122,189,255);stop-opacity:1"/><stop offset="1" style="stop-color:rgb(37,89,141);stop-opacity:1"/></linearGradient>
        <linearGradient id="_Linear17" x1="0" y1="0" x2="1" y2="0" gradientUnits="userSpaceOnUse" gradientTransform="matrix(8.90547e-15,115.061,-145.437,7.04546e-15,360.859,212.2)"><stop offset="0" style="stop-color:rgb(229,211,21);stop-opacity:1"/><stop offset="1" style="stop-color:rgb(222,134,2);stop-opacity:1"/></linearGradient>
        <linearGradient id="_Linear18" x1="0" y1="0" x2="1" y2="0" gradientUnits="userSpaceOnUse" gradientTransform="matrix(8.90547e-15,115.061,-145.437,7.04546e-15,360.859,212.2)"><stop offset="0" style="stop-color:rgb(229,211,21);stop-opacity:1"/><stop offset="1" style="stop-color:rgb(222,134,2);stop-opacity:1"/></linearGradient>
    </defs>
</svg>
