<?xml version="1.0" encoding="UTF-8" standalone="no"?>
<!DOCTYPE svg PUBLIC "-//W3C//DTD SVG 1.1//EN" "http://www.w3.org/Graphics/SVG/1.1/DTD/svg11.dtd">
<svg width="100%" height="100%" viewBox="0 0 1382 1032" version="1.1" xmlns="http://www.w3.org/2000/svg" xmlns:xlink="http://www.w3.org/1999/xlink" xml:space="preserve" xmlns:serif="http://www.serif.com/" style="fill-rule:evenodd;clip-rule:evenodd;stroke-linejoin:round;stroke-miterlimit:1.41421;">
    <g transform="matrix(0.857764,0,0,0.918708,0,0)">
        <rect x="0" y="0" width="1611.11" height="1122.88" style="fill:rgb(235,235,235);"/>
    </g>
    <g transform="matrix(1,0,0,1,-2906.1,401.575)">
        <g transform="matrix(0.747533,0,0,0.755906,2733.51,-39.874)">
            <rect x="285" y="209" width="158" height="125" style="fill:url(#_Linear1);stroke:rgb(201,139,38);stroke-width:5.77px;"/>
        </g>
        <g transform="matrix(1,0,0,1,-21.4798,9.29673)">
            <text x="3005.8px" y="165.628px" style="font-family:'ArialMT', 'Arial', sans-serif;font-size:50px;">T</text>
            <text x="3036.34px" y="182.278px" style="font-family:'ArialMT', 'Arial', sans-serif;font-size:29.15px;">1</text>
        </g>
    </g>
    <g transform="matrix(1,0,0,1,-2669.88,11.811)">
        <g transform="matrix(0.747533,0,0,0.755906,2733.51,-39.874)">
            <rect x="285" y="209" width="158" height="125" style="fill:url(#_Linear2);stroke:rgb(201,139,38);stroke-width:5.77px;"/>
        </g>
        <g transform="matrix(1,0,0,1,-21.4798,9.29673)">
            <text x="3005.8px" y="165.628px" style="font-family:'ArialMT', 'Arial', sans-serif;font-size:50px;">T</text>
            <text x="3036.34px" y="182.278px" style="font-family:'ArialMT', 'Arial', sans-serif;font-size:29.15px;">2</text>
        </g>
    </g>
    <g transform="matrix(1,0,0,1,-2433.66,-47.2441)">
        <g transform="matrix(0.747533,0,0,0.755906,2733.51,-39.874)">
            <rect x="285" y="209" width="158" height="125" style="fill:url(#_Linear3);stroke:rgb(60,94,128);stroke-width:1.39px;"/>
        </g>
        <g transform="matrix(1,0,0,1,-21.4798,9.29673)">
            <text x="3005.8px" y="165.628px" style="font-family:'ArialMT', 'Arial', sans-serif;font-size:50px;">T</text>
            <text x="3036.34px" y="182.278px" style="font-family:'ArialMT', 'Arial', sans-serif;font-size:29.15px;">6</text>
        </g>
    </g>
    <g transform="matrix(1,0,0,1,-2433.66,71.1914)">
        <g transform="matrix(0.747533,0,0,0.755906,2733.51,-39.874)">
            <rect x="285" y="209" width="158" height="125" style="fill:url(#_Linear4);stroke:rgb(201,139,38);stroke-width:5.77px;"/>
        </g>
        <g transform="matrix(1,0,0,1,-21.4798,9.29673)">
            <text x="3005.8px" y="165.628px" style="font-family:'ArialMT', 'Arial', sans-serif;font-size:50px;">T</text>
            <text x="3036.34px" y="182.278px" style="font-family:'ArialMT', 'Arial', sans-serif;font-size:29.15px;">7</text>
        </g>
    </g>
    <g transform="matrix(1,0,0,1,-2610.38,-295.671)">
        <g transform="matrix(1,-0,-0,1,2610.38,295.671)">
            <path d="M489.728,220.187L512.895,235.825L486.484,244.975C493.492,239.589 495.114,227.195 489.728,220.187Z"/>
            <path d="M394.784,177.165C446.195,177.165 452.981,221.88 493.064,233.23" style="fill:none;stroke:black;stroke-width:4.17px;stroke-linecap:round;stroke-miterlimit:1.5;"/>
        </g>
    </g>
    <g transform="matrix(1,0,0,1,-2610.38,-295.671)">
        <g transform="matrix(1,-0,-0,1,2610.38,295.671)">
            <path d="M486.476,108.982L512.895,118.11L489.741,133.768C495.121,126.755 493.489,114.362 486.476,108.982Z"/>
            <path d="M394.784,177.165C446.196,177.165 452.981,132.148 493.066,120.722" style="fill:none;stroke:black;stroke-width:4.17px;stroke-linecap:round;stroke-miterlimit:1.5;"/>
        </g>
    </g>
    <g transform="matrix(0.77398,0,0,0.646678,-2048.78,-3782.54)">
        <rect x="2958.76" y="5940.51" width="518.844" height="365.283" style="fill:none;stroke:black;stroke-width:4.38px;stroke-linecap:round;stroke-miterlimit:1.5;stroke-dasharray:8.76,8.76,0,0;"/>
    </g>
    <g transform="matrix(1.73007,0,0,0.711346,-4889.45,-4178.51)">
        <rect x="2958.76" y="5940.51" width="518.844" height="365.283" style="fill:none;stroke:black;stroke-width:2.36px;stroke-linecap:round;stroke-miterlimit:1.5;stroke-dasharray:4.73,4.73,0,0;"/>
    </g>
    <g transform="matrix(1.7756,0,0,1.16402,-5035.97,-6879.44)">
        <rect x="2958.76" y="5940.51" width="518.844" height="365.283" style="fill:none;stroke:black;stroke-width:2.08px;stroke-linecap:round;stroke-miterlimit:1.5;stroke-dasharray:4.16,4.16,0,0;"/>
    </g>
    <g transform="matrix(2.54958,0,0,2.68371,-7514.97,-15919)">
        <rect x="2958.76" y="5940.51" width="518.844" height="365.283" style="fill:none;stroke:black;stroke-width:1.19px;stroke-linecap:round;stroke-miterlimit:1.5;stroke-dasharray:2.39,2.39,0,0;"/>
    </g>
    <g transform="matrix(0.77398,0,0,0.323339,-2048.78,-1590.09)">
        <rect x="2958.76" y="5940.51" width="518.844" height="365.283" style="fill:none;stroke:black;stroke-width:5.62px;stroke-linecap:round;stroke-miterlimit:1.5;stroke-dasharray:11.24,11.24,0,0;"/>
    </g>
    <g transform="matrix(0.77398,0,0,0.646678,-2048.78,-3333.72)">
        <rect x="2958.76" y="5940.51" width="518.844" height="365.283" style="fill:none;stroke:black;stroke-width:4.67px;stroke-linecap:round;stroke-miterlimit:1.5;stroke-dasharray:9.35,9.35,0,0;"/>
    </g>
    <g transform="matrix(1.27479,0,0,1.35802,-3542.37,-7571.29)">
        <rect x="2958.76" y="5940.51" width="518.844" height="365.283" style="fill:none;stroke:black;stroke-width:2.53px;stroke-linecap:round;stroke-miterlimit:1.5;stroke-dasharray:5.06,5.06,0,0;"/>
    </g>
    <g transform="matrix(0.77398,0,0,0.323339,-1576.34,-1743.63)">
        <rect x="2958.76" y="5940.51" width="518.844" height="365.283" style="fill:none;stroke:black;stroke-width:5.62px;stroke-linecap:round;stroke-miterlimit:1.5;stroke-dasharray:11.24,11.24,0,0;"/>
    </g>
    <g transform="matrix(1,0,0,1,-2669.88,224.362)">
        <g transform="matrix(0.747533,0,0,0.755906,2733.51,-39.874)">
            <rect x="285" y="209" width="158" height="125" style="fill:url(#_Linear5);stroke:rgb(60,94,128);stroke-width:1.39px;"/>
        </g>
        <g transform="matrix(1,0,0,1,-21.4798,9.29673)">
            <text x="3005.8px" y="165.628px" style="font-family:'ArialMT', 'Arial', sans-serif;font-size:50px;">T</text>
            <text x="3036.34px" y="182.278px" style="font-family:'ArialMT', 'Arial', sans-serif;font-size:29.15px;">3</text>
        </g>
    </g>
    <g transform="matrix(1,0,0,1,-2433.66,224.362)">
        <g transform="matrix(0.747533,0,0,0.755906,2733.51,-39.874)">
            <rect x="285" y="209" width="158" height="125" style="fill:url(#_Linear6);stroke:rgb(60,94,128);stroke-width:1.39px;"/>
        </g>
        <g transform="matrix(1,0,0,1,-21.4798,9.29673)">
            <text x="3005.8px" y="165.628px" style="font-family:'ArialMT', 'Arial', sans-serif;font-size:50px;">T</text>
            <text x="3036.34px" y="182.278px" style="font-family:'ArialMT', 'Arial', sans-serif;font-size:29.15px;">8</text>
        </g>
    </g>
    <g transform="matrix(1,0,0,1,-2610.38,-83.1202)">
        <g transform="matrix(1,-0,-0,1,2610.38,83.1202)">
            <path d="M487.895,377.217L512.895,389.717L487.895,402.217C494.145,395.967 494.145,383.467 487.895,377.217Z"/>
            <path d="M394.784,389.717L492.895,389.717" style="fill:none;stroke:black;stroke-width:4.17px;stroke-linecap:round;stroke-miterlimit:1.5;"/>
        </g>
    </g>
    <g transform="matrix(0.77398,0,0,0.323339,-1812.56,-1058.59)">
        <rect x="2958.76" y="5940.51" width="518.844" height="365.283" style="fill:none;stroke:black;stroke-width:5.62px;stroke-linecap:round;stroke-miterlimit:1.5;stroke-dasharray:11.24,11.24,0,0;"/>
    </g>
    <g transform="matrix(1,0,0,1,-2669.88,459.9)">
        <g transform="matrix(0.747533,0,0,0.755906,2733.51,-39.874)">
            <rect x="285" y="209" width="158" height="125" style="fill:url(#_Linear7);stroke:rgb(60,94,128);stroke-width:1.39px;"/>
        </g>
        <g transform="matrix(1,0,0,1,-21.4798,9.29673)">
            <text x="3005.8px" y="165.628px" style="font-family:'ArialMT', 'Arial', sans-serif;font-size:50px;">T</text>
            <text x="3036.34px" y="182.278px" style="font-family:'ArialMT', 'Arial', sans-serif;font-size:29.15px;">4</text>
        </g>
    </g>
    <g transform="matrix(1,0,0,1,-2669.88,696.85)">
        <g transform="matrix(0.747533,0,0,0.755906,2733.51,-39.874)">
            <rect x="285" y="209" width="158" height="125" style="fill:url(#_Linear8);stroke:rgb(60,94,128);stroke-width:1.39px;"/>
        </g>
        <g transform="matrix(1,0,0,1,-21.4798,9.29673)">
            <text x="3005.8px" y="165.628px" style="font-family:'ArialMT', 'Arial', sans-serif;font-size:50px;">T</text>
            <text x="3036.34px" y="182.278px" style="font-family:'ArialMT', 'Arial', sans-serif;font-size:29.15px;">5</text>
        </g>
    </g>
    <g transform="matrix(1,0,0,1,-2433.66,401.063)">
        <g transform="matrix(0.747533,0,0,0.755906,2733.51,-39.874)">
            <rect x="285" y="209" width="158" height="125" style="fill:url(#_Linear9);stroke:rgb(60,94,128);stroke-width:1.39px;"/>
        </g>
        <g transform="matrix(1,0,0,1,-21.4798,9.29673)">
            <text x="3005.8px" y="165.628px" style="font-family:'ArialMT', 'Arial', sans-serif;font-size:50px;">T</text>
            <text x="3036.34px" y="182.278px" style="font-family:'ArialMT', 'Arial', sans-serif;font-size:29.15px;">9</text>
        </g>
    </g>
    <g transform="matrix(1,0,0,1,-2433.66,519.685)">
        <g transform="matrix(0.747533,0,0,0.755906,2733.51,-39.874)">
            <rect x="285" y="209" width="158" height="125" style="fill:url(#_Linear10);stroke:rgb(60,94,128);stroke-width:1.39px;"/>
        </g>
        <g transform="matrix(1,0,0,1,-21.4798,9.29673)">
            <text x="3005.8px" y="165.628px" style="font-family:'ArialMT', 'Arial', sans-serif;font-size:50px;">T</text>
            <text x="3036.34px" y="182.278px" style="font-family:'ArialMT', 'Arial', sans-serif;font-size:29.15px;">10</text>
        </g>
    </g>
    <g transform="matrix(1,0,0,1,-2433.66,637.795)">
        <g transform="matrix(0.747533,0,0,0.755906,2733.51,-39.874)">
            <rect x="285" y="209" width="158" height="125" style="fill:url(#_Linear11);stroke:rgb(60,94,128);stroke-width:1.39px;"/>
        </g>
        <g transform="matrix(1,0,0,1,-21.4798,9.29673)">
            <text x="3005.8px" y="165.628px" style="font-family:'ArialMT', 'Arial', sans-serif;font-size:50px;">T</text>
            <text x="3036.34px" y="182.278px" style="font-family:'ArialMT', 'Arial', sans-serif;font-size:29.15px;">1<tspan x="3048.84px " y="182.278px ">1</tspan></text>
        </g>
    </g>
    <g transform="matrix(1,0,0,1,-2433.66,755.906)">
        <g transform="matrix(0.747533,0,0,0.755906,2733.51,-39.874)">
            <rect x="285" y="209" width="158" height="125" style="fill:url(#_Linear12);stroke:rgb(60,94,128);stroke-width:1.39px;"/>
        </g>
        <g transform="matrix(1,0,0,1,-21.4798,9.29673)">
            <text x="3005.8px" y="165.628px" style="font-family:'ArialMT', 'Arial', sans-serif;font-size:50px;">T</text>
            <text x="3036.34px" y="182.278px" style="font-family:'ArialMT', 'Arial', sans-serif;font-size:29.15px;">12</text>
        </g>
    </g>
    <g transform="matrix(1,0,0,1,-2197.44,71.1914)">
        <g transform="matrix(0.747533,0,0,0.755906,2733.51,-39.874)">
            <rect x="285" y="209" width="158" height="125" style="fill:url(#_Linear13);stroke:rgb(201,139,38);stroke-width:5.77px;"/>
        </g>
        <g transform="matrix(1,0,0,1,-21.4798,9.29673)">
            <text x="3005.8px" y="165.628px" style="font-family:'ArialMT', 'Arial', sans-serif;font-size:50px;">T</text>
            <text x="3036.34px" y="182.278px" style="font-family:'ArialMT', 'Arial', sans-serif;font-size:29.15px;">13</text>
        </g>
    </g>
    <g transform="matrix(1,0,0,1,-2197.76,460.63)">
        <g transform="matrix(0.747533,0,0,0.755906,2733.51,-39.874)">
            <rect x="285" y="209" width="158" height="125" style="fill:url(#_Linear14);stroke:rgb(60,94,128);stroke-width:1.39px;"/>
        </g>
        <g transform="matrix(1,0,0,1,-21.4798,9.29673)">
            <text x="3005.8px" y="165.628px" style="font-family:'ArialMT', 'Arial', sans-serif;font-size:50px;">T</text>
            <text x="3036.34px" y="182.278px" style="font-family:'ArialMT', 'Arial', sans-serif;font-size:29.15px;">14</text>
        </g>
    </g>
    <g transform="matrix(1,0,0,1,-2197.76,637.795)">
        <g transform="matrix(0.747533,0,0,0.755906,2733.51,-39.874)">
            <rect x="285" y="209" width="158" height="125" style="fill:url(#_Linear15);stroke:rgb(60,94,128);stroke-width:1.39px;"/>
        </g>
        <g transform="matrix(1,0,0,1,-21.4798,9.29673)">
            <text x="3005.8px" y="165.628px" style="font-family:'ArialMT', 'Arial', sans-serif;font-size:50px;">T</text>
            <text x="3036.34px" y="182.278px" style="font-family:'ArialMT', 'Arial', sans-serif;font-size:29.15px;">15</text>
        </g>
    </g>
    <g transform="matrix(1,0,0,1,-2197.76,755.906)">
        <g transform="matrix(0.747533,0,0,0.755906,2733.51,-39.874)">
            <rect x="285" y="209" width="158" height="125" style="fill:url(#_Linear16);stroke:rgb(60,94,128);stroke-width:1.39px;"/>
        </g>
        <g transform="matrix(1,0,0,1,-21.4798,9.29673)">
            <text x="3005.8px" y="165.628px" style="font-family:'ArialMT', 'Arial', sans-serif;font-size:50px;">T</text>
            <text x="3036.34px" y="182.278px" style="font-family:'ArialMT', 'Arial', sans-serif;font-size:29.15px;">16</text>
        </g>
    </g>
    <g transform="matrix(1,0,0,1,-1960.87,71.1914)">
        <g transform="matrix(0.747533,0,0,0.755906,2733.51,-39.874)">
            <rect x="285" y="209" width="158" height="125" style="fill:url(#_Linear17);stroke:rgb(201,139,38);stroke-width:5.77px;"/>
        </g>
        <g transform="matrix(1,0,0,1,-21.4798,9.29673)">
            <text x="3005.8px" y="165.628px" style="font-family:'ArialMT', 'Arial', sans-serif;font-size:50px;">T</text>
            <text x="3036.34px" y="182.278px" style="font-family:'ArialMT', 'Arial', sans-serif;font-size:29.15px;">17</text>
        </g>
    </g>
    <g transform="matrix(1,0,0,1,-1724.68,401.575)">
        <g transform="matrix(0.747533,0,0,0.755906,2733.51,-39.874)">
            <rect x="285" y="209" width="158" height="125" style="fill:url(#_Linear18);stroke:rgb(201,139,38);stroke-width:5.77px;"/>
        </g>
        <g transform="matrix(1,0,0,1,-21.4798,9.29673)">
            <text x="3005.8px" y="165.628px" style="font-family:'ArialMT', 'Arial', sans-serif;font-size:50px;">T</text>
            <text x="3036.34px" y="182.278px" style="font-family:'ArialMT', 'Arial', sans-serif;font-size:29.15px;">18</text>
        </g>
    </g>
    <g transform="matrix(1,0,0,1.31823,-2846.6,-56.3794)">
        <g transform="matrix(1,-0,-0,0.758593,2846.6,42.769)">
            <path d="M249.071,181.56L276.674,177.165L263.628,201.885C265.07,193.164 257.791,183.002 249.071,181.56Z"/>
            <path d="M158.564,566.928C211.037,567.468 217.379,253.68 260.414,188.811" style="fill:none;stroke:black;stroke-width:4.17px;stroke-linecap:round;stroke-miterlimit:1.5;"/>
        </g>
    </g>
    <g transform="matrix(1,0,0,1.49741,-2846.6,-141.104)">
        <g transform="matrix(1,-0,-0,0.667818,2846.6,94.2315)">
            <path d="M248.874,387.004L276.674,389.902L257.676,410.403C261.325,402.353 256.924,390.653 248.874,387.004Z"/>
            <path d="M158.564,566.929C210.146,566.929 217.046,429.855 257.955,396.943" style="fill:none;stroke:black;stroke-width:4.17px;stroke-linecap:round;stroke-miterlimit:1.5;"/>
        </g>
    </g>
    <g transform="matrix(1,0,0,0.994305,-2846.6,96.7853)">
        <g transform="matrix(1,-0,-0,1.00573,2846.6,-97.3397)">
            <path d="M253.496,609.633L276.674,625.254L250.27,634.424C257.274,629.033 258.887,616.637 253.496,609.633Z"/>
            <path d="M158.564,566.929C209.974,566.929 216.76,611.387 256.841,622.674" style="fill:none;stroke:black;stroke-width:4.17px;stroke-linecap:round;stroke-miterlimit:1.5;"/>
        </g>
    </g>
    <g transform="matrix(1,0,0,1,-2374.16,-354.727)">
        <g transform="matrix(1,-0,-0,1,2374.16,354.727)">
            <path d="M728.015,218.215L749.115,236.546L721.79,242.428C729.399,237.931 732.512,225.824 728.015,218.215Z"/>
            <path d="M631.005,118.11C682.612,118.11 689.252,209.081 729.745,231.566" style="fill:none;stroke:black;stroke-width:4.17px;stroke-linecap:round;stroke-miterlimit:1.5;"/>
        </g>
    </g>
    <g transform="matrix(1,0,0,1,-2374.16,93.5803)">
        <g transform="matrix(1,-0,-0,1,2374.16,-93.5803)">
            <path d="M725.948,609.438L749.115,625.076L722.705,634.227C729.713,628.841 731.334,616.447 725.948,609.438Z"/>
            <path d="M631.005,566.417C682.415,566.417 689.201,611.131 729.284,622.482" style="fill:none;stroke:black;stroke-width:4.17px;stroke-linecap:round;stroke-miterlimit:1.5;"/>
        </g>
    </g>
    <g transform="matrix(1,0,0,1,-2374.16,93.5803)">
        <g transform="matrix(1,-0,-0,1,2374.16,-93.5803)">
            <path d="M722.699,615.942L749.115,625.076L725.958,640.729C731.34,633.717 729.71,621.324 722.699,615.942Z"/>
            <path d="M631.005,684.025C682.416,684.025 689.201,639.089 729.286,627.684" style="fill:none;stroke:black;stroke-width:4.17px;stroke-linecap:round;stroke-miterlimit:1.5;"/>
        </g>
    </g>
    <g transform="matrix(1,0,0,1.00057,-2138.26,330.478)">
        <g transform="matrix(1,-0,-0,0.999431,2138.26,-330.29)">
            <path d="M1194.04,564.319L1221.87,566.929L1203.09,587.626C1206.65,579.539 1202.13,567.885 1194.04,564.319Z"/>
            <path d="M866.904,921.26C920.787,921.26 1123.98,624.566 1203.23,574.164" style="fill:none;stroke:black;stroke-width:4.17px;stroke-linecap:round;stroke-miterlimit:1.5;"/>
        </g>
    </g>
    <g transform="matrix(1,0,0,1,-2138.26,330.613)">
        <g transform="matrix(1,-0,-0,1,2138.26,-330.613)">
            <path d="M1194.51,561.243L1221.87,566.929L1200.9,585.41C1205.35,577.769 1202.15,565.685 1194.51,561.243Z"/>
            <path d="M866.904,803.15C920.631,803.15 1122.81,606.492 1202.54,572.047" style="fill:none;stroke:black;stroke-width:4.17px;stroke-linecap:round;stroke-miterlimit:1.5;"/>
        </g>
    </g>
    <g transform="matrix(1,0,0,0.98764,-2138.26,333.534)">
        <g transform="matrix(1,-0,-0,1.01251,2138.26,-337.708)">
            <path d="M1196.1,556.12L1221.87,566.929L1197.76,581.065C1203.58,574.413 1202.75,561.94 1196.1,556.12Z"/>
            <path d="M866.904,625.254C920.492,625.254 1121.76,576.949 1201.92,568.26" style="fill:none;stroke:black;stroke-width:4.17px;stroke-linecap:round;stroke-miterlimit:1.5;"/>
        </g>
    </g>
    <g transform="matrix(1,0,0,1.50247,-2138.26,211.872)">
        <g transform="matrix(1,-0,-0,0.665571,2138.26,-141.016)">
            <path d="M1198.89,551.027L1221.87,566.929L1195.36,575.776C1202.43,570.471 1204.19,558.096 1198.89,551.027Z"/>
            <path d="M631.005,389.717C685.488,389.717 1094.58,541.428 1202.07,564.107" style="fill:none;stroke:black;stroke-width:4.17px;stroke-linecap:round;stroke-miterlimit:1.5;"/>
        </g>
    </g>
    <g transform="matrix(1,0,0,1,-2846.6,94.4882)">
        <path d="M3654.45,578.74L3654.45,661.417" style="fill:none;stroke:rgb(232,0,0);stroke-width:8.33px;stroke-linecap:round;stroke-miterlimit:1.5;"/>
    </g>
    <g transform="matrix(1,0,0,1.40055,-2138.26,235.956)">
        <g transform="matrix(1,-0,-0,0.714004,2138.26,-168.474)">
            <path d="M1207.17,543.154L1221.87,566.929L1194.03,564.422C1202.64,562.39 1209.21,551.756 1207.17,543.154Z"/>
            <path d="M1103.8,236.546C1156.39,236.546 1162.25,500.089 1204.86,556.416" style="fill:none;stroke:black;stroke-width:4.17px;stroke-linecap:round;stroke-miterlimit:1.5;"/>
        </g>
    </g>
    <g transform="matrix(1,0,0,1,-2610.38,152.418)">
        <g transform="matrix(1,-0,-0,1,2610.38,-152.418)">
            <path d="M486.476,557.071L512.895,566.199L489.741,581.857C495.121,574.844 493.489,562.451 486.476,557.071Z"/>
            <path d="M394.784,625.254C446.196,625.254 452.981,580.237 493.066,568.811" style="fill:none;stroke:black;stroke-width:4.17px;stroke-linecap:round;stroke-miterlimit:1.5;"/>
        </g>
    </g>
    <g transform="matrix(1,0,0,1,-2610.38,152.418)">
        <g transform="matrix(1,-0,-0,1,2610.38,-152.418)">
            <path d="M489.731,668.382L512.895,684.025L486.482,693.17C493.491,687.785 495.116,675.391 489.731,668.382Z"/>
            <path d="M394.784,625.254C446.195,625.254 452.981,670.054 493.064,681.426" style="fill:none;stroke:black;stroke-width:4.17px;stroke-linecap:round;stroke-miterlimit:1.5;"/>
        </g>
    </g>
    <g transform="matrix(1,0,0,1,-2610.38,388.78)">
        <g transform="matrix(1,-0,-0,1,2610.38,-388.78)">
            <path d="M486.476,793.433L512.895,802.562L489.741,818.219C495.121,811.207 493.489,798.814 486.476,793.433Z"/>
            <path d="M394.784,861.617C446.196,861.617 452.981,816.599 493.066,805.173" style="fill:none;stroke:black;stroke-width:4.17px;stroke-linecap:round;stroke-miterlimit:1.5;"/>
        </g>
    </g>
    <g transform="matrix(1,0,0,1,-2610.38,388.78)">
        <g transform="matrix(1,-0,-0,1,2610.38,-388.78)">
            <path d="M489.731,904.744L512.895,920.388L486.482,929.532C493.491,924.148 495.116,911.754 489.731,904.744Z"/>
            <path d="M394.784,861.617C446.195,861.617 452.981,906.417 493.064,917.788" style="fill:none;stroke:black;stroke-width:4.17px;stroke-linecap:round;stroke-miterlimit:1.5;"/>
        </g>
    </g>
    <g transform="matrix(1,0,0,1,-2374.16,330.313)">
        <g transform="matrix(1,-0,-0,1,2374.16,-330.313)">
            <path d="M724.115,790.65L749.115,803.15L724.115,815.65C730.365,809.4 730.365,796.9 724.115,790.65Z"/>
            <path d="M631.005,803.15L729.115,803.15" style="fill:none;stroke:black;stroke-width:4.17px;stroke-linecap:round;stroke-miterlimit:1.5;"/>
        </g>
    </g>
    <g transform="matrix(1,0,0,1,-2374.16,-236.291)">
        <g transform="matrix(1,-0,-0,1,2374.16,236.291)">
            <path d="M724.115,224.046L749.115,236.546L724.115,249.046C730.365,242.796 730.365,230.296 724.115,224.046Z"/>
            <path d="M631.005,236.546L729.115,236.546" style="fill:none;stroke:black;stroke-width:4.17px;stroke-linecap:round;stroke-miterlimit:1.5;"/>
        </g>
    </g>
    <g transform="matrix(1,0,0,1,-2137.78,-236.291)">
        <g transform="matrix(1,-0,-0,1,2137.78,236.291)">
            <path d="M960.493,224.046L985.493,236.546L960.493,249.046C966.743,242.796 966.743,230.296 960.493,224.046Z"/>
            <path d="M867.383,236.546L965.493,236.546" style="fill:none;stroke:black;stroke-width:4.17px;stroke-linecap:round;stroke-miterlimit:1.5;"/>
        </g>
    </g>
    <g transform="matrix(1,0,0,1,-2374.16,448.423)">
        <g transform="matrix(1,-0,-0,1,2374.16,-448.423)">
            <path d="M724.115,908.76L749.115,921.26L724.115,933.76C730.365,927.51 730.365,915.01 724.115,908.76Z"/>
            <path d="M631.005,921.26L729.115,921.26" style="fill:none;stroke:black;stroke-width:4.17px;stroke-linecap:round;stroke-miterlimit:1.5;"/>
        </g>
    </g>
    <g transform="matrix(1,0,0,1.00134,-2846.6,93.4576)">
        <g transform="matrix(1,-0,-0,0.998659,2846.6,-93.3323)">
            <path d="M260.999,839.063L276.674,862.205L248.756,860.86C257.266,858.472 263.387,847.573 260.999,839.063Z"/>
            <path d="M158.564,566.929C211.364,566.929 216.784,801.237 259.237,852.41" style="fill:none;stroke:black;stroke-width:4.17px;stroke-linecap:round;stroke-miterlimit:1.5;"/>
        </g>
    </g>
    <defs>
        <linearGradient id="_Linear1" x1="0" y1="0" x2="1" y2="0" gradientUnits="userSpaceOnUse" gradientTransform="matrix(8.90547e-15,115.061,-145.437,7.04546e-15,360.859,212.2)"><stop offset="0" style="stop-color:rgb(229,211,21);stop-opacity:1"/><stop offset="1" style="stop-color:rgb(222,134,2);stop-opacity:1"/></linearGradient>
        <linearGradient id="_Linear2" x1="0" y1="0" x2="1" y2="0" gradientUnits="userSpaceOnUse" gradientTransform="matrix(8.90547e-15,115.061,-145.437,7.04546e-15,360.859,212.2)"><stop offset="0" style="stop-color:rgb(229,211,21);stop-opacity:1"/><stop offset="1" style="stop-color:rgb(222,134,2);stop-opacity:1"/></linearGradient>
        <linearGradient id="_Linear3" x1="0" y1="0" x2="1" y2="0" gradientUnits="userSpaceOnUse" gradientTransform="matrix(8.90547e-15,115.061,-145.437,7.04546e-15,360.859,212.2)"><stop offset="0" style="stop-color:rgb(122,189,255);stop-opacity:1"/><stop offset="1" style="stop-color:rgb(37,89,141);stop-opacity:1"/></linearGradient>
        <linearGradient id="_Linear4" x1="0" y1="0" x2="1" y2="0" gradientUnits="userSpaceOnUse" gradientTransform="matrix(8.90547e-15,115.061,-145.437,7.04546e-15,360.859,212.2)"><stop offset="0" style="stop-color:rgb(229,211,21);stop-opacity:1"/><stop offset="1" style="stop-color:rgb(222,134,2);stop-opacity:1"/></linearGradient>
        <linearGradient id="_Linear5" x1="0" y1="0" x2="1" y2="0" gradientUnits="userSpaceOnUse" gradientTransform="matrix(8.90547e-15,115.061,-145.437,7.04546e-15,360.859,212.2)"><stop offset="0" style="stop-color:rgb(122,189,255);stop-opacity:1"/><stop offset="1" style="stop-color:rgb(37,89,141);stop-opacity:1"/></linearGradient>
        <linearGradient id="_Linear6" x1="0" y1="0" x2="1" y2="0" gradientUnits="userSpaceOnUse" gradientTransform="matrix(8.90547e-15,115.061,-145.437,7.04546e-15,360.859,212.2)"><stop offset="0" style="stop-color:rgb(122,189,255);stop-opacity:1"/><stop offset="1" style="stop-color:rgb(37,89,141);stop-opacity:1"/></linearGradient>
        <linearGradient id="_Linear7" x1="0" y1="0" x2="1" y2="0" gradientUnits="userSpaceOnUse" gradientTransform="matrix(8.90547e-15,115.061,-145.437,7.04546e-15,360.859,212.2)"><stop offset="0" style="stop-color:rgb(122,189,255);stop-opacity:1"/><stop offset="1" style="stop-color:rgb(37,89,141);stop-opacity:1"/></linearGradient>
        <linearGradient id="_Linear8" x1="0" y1="0" x2="1" y2="0" gradientUnits="userSpaceOnUse" gradientTransform="matrix(8.90547e-15,115.061,-145.437,7.04546e-15,360.859,212.2)"><stop offset="0" style="stop-color:rgb(122,189,255);stop-opacity:1"/><stop offset="1" style="stop-color:rgb(37,89,141);stop-opacity:1"/></linearGradient>
        <linearGradient id="_Linear9" x1="0" y1="0" x2="1" y2="0" gradientUnits="userSpaceOnUse" gradientTransform="matrix(8.90547e-15,115.061,-145.437,7.04546e-15,360.859,212.2)"><stop offset="0" style="stop-color:rgb(122,189,255);stop-opacity:1"/><stop offset="1" style="stop-color:rgb(37,89,141);stop-opacity:1"/></linearGradient>
        <linearGradient id="_Linear10" x1="0" y1="0" x2="1" y2="0" gradientUnits="userSpaceOnUse" gradientTransform="matrix(8.90547e-15,115.061,-145.437,7.04546e-15,360.859,212.2)"><stop offset="0" style="stop-color:rgb(122,189,255);stop-opacity:1"/><stop offset="1" style="stop-color:rgb(37,89,141);stop-opacity:1"/></linearGradient>
        <linearGradient id="_Linear11" x1="0" y1="0" x2="1" y2="0" gradientUnits="userSpaceOnUse" gradientTransform="matrix(8.90547e-15,115.061,-145.437,7.04546e-15,360.859,212.2)"><stop offset="0" style="stop-color:rgb(122,189,255);stop-opacity:1"/><stop offset="1" style="stop-color:rgb(37,89,141);stop-opacity:1"/></linearGradient>
        <linearGradient id="_Linear12" x1="0" y1="0" x2="1" y2="0" gradientUnits="userSpaceOnUse" gradientTransform="matrix(8.90547e-15,115.061,-145.437,7.04546e-15,360.859,212.2)"><stop offset="0" style="stop-color:rgb(122,189,255);stop-opacity:1"/><stop offset="1" style="stop-color:rgb(37,89,141);stop-opacity:1"/></linearGradient>
        <linearGradient id="_Linear13" x1="0" y1="0" x2="1" y2="0" gradientUnits="userSpaceOnUse" gradientTransform="matrix(8.90547e-15,115.061,-145.437,7.04546e-15,360.859,212.2)"><stop offset="0" style="stop-color:rgb(229,211,21);stop-opacity:1"/><stop offset="1" style="stop-color:rgb(222,134,2);stop-opacity:1"/></linearGradient>
        <linearGradient id="_Linear14" x1="0" y1="0" x2="1" y2="0" gradientUnits="userSpaceOnUse" gradientTransform="matrix(8.90547e-15,115.061,-145.437,7.04546e-15,360.859,212.2)"><stop offset="0" style="stop-color:rgb(122,189,255);stop-opacity:1"/><stop offset="1" style="stop-color:rgb(37,89,141);stop-opacity:1"/></linearGradient>
        <linearGradient id="_Linear15" x1="0" y1="0" x2="1" y2="0" gradientUnits="userSpaceOnUse" gradientTransform="matrix(8.90547e-15,115.061,-145.437,7.04546e-15,360.859,212.2)"><stop offset="0" style="stop-color:rgb(122,189,255);stop-opacity:1"/><stop offset="1" style="stop-color:rgb(37,89,141);stop-opacity:1"/></linearGradient>
        <linearGradient id="_Linear16" x1="0" y1="0" x2="1" y2="0" gradientUnits="userSpaceOnUse" gradientTransform="matrix(8.90547e-15,115.061,-145.437,7.04546e-15,360.859,212.2)"><stop offset="0" style="stop-color:rgb(122,189,255);stop-opacity:1"/><stop offset="1" style="stop-color:rgb(37,89,141);stop-opacity:1"/></linearGradient>
        <linearGradient id="_Linear17" x1="0" y1="0" x2="1" y2="0" gradientUnits="userSpaceOnUse" gradientTransform="matrix(8.90547e-15,115.061,-145.437,7.04546e-15,360.859,212.2)"><stop offset="0" style="stop-color:rgb(229,211,21);stop-opacity:1"/><stop offset="1" style="stop-color:rgb(222,134,2);stop-opacity:1"/></linearGradient>
        <linearGradient id="_Linear18" x1="0" y1="0" x2="1" y2="0" gradientUnits="userSpaceOnUse" gradientTransform="matrix(8.90547e-15,115.061,-145.437,7.04546e-15,360.859,212.2)"><stop offset="0" style="stop-color:rgb(229,211,21);stop-opacity:1"/><stop offset="1" style="stop-color:rgb(222,134,2);stop-opacity:1"/></linearGradient>
    </defs>
</svg>
